<?xml version="1.0" encoding="utf-8"?>
<svg viewBox="136.2171 293.4341 28.3652 50.3869" width="28.3652" height="50.3869" xmlns="http://www.w3.org/2000/svg">
  <path id="path2656"
    style="color:#fefefe;font-style:normal;font-variant:normal;font-weight:normal;font-stretch:normal;font-size:medium;line-height:normal;font-family:sans-serif;font-variant-ligatures:normal;font-variant-position:normal;font-variant-caps:normal;font-variant-numeric:normal;font-variant-alternates:normal;font-variant-east-asian:normal;font-feature-settings:normal;font-variation-settings:normal;text-indent:0;text-align:start;text-decoration:none;text-decoration-line:none;text-decoration-style:solid;text-decoration-color:#000000;letter-spacing:normal;word-spacing:normal;text-transform:none;writing-mode:lr-tb;direction:ltr;text-orientation:mixed;dominant-baseline:auto;baseline-shift:baseline;text-anchor:start;white-space:normal;shape-padding:0;shape-margin:0;inline-size:0;clip-rule:nonzero;display:inline;overflow:visible;visibility:visible;opacity:1;isolation:auto;mix-blend-mode:normal;color-interpolation:sRGB;color-interpolation-filters:linearRGB;solid-color:#000000;solid-opacity:1;vector-effect:none;fill:#fefefe;fill-opacity:1;fill-rule:nonzero;stroke:none;stroke-width:0.552967;stroke-linecap:round;stroke-linejoin:miter;stroke-miterlimit:4;stroke-dasharray:none;stroke-dashoffset:0;stroke-opacity:1;color-rendering:auto;image-rendering:auto;shape-rendering:auto;text-rendering:auto;enable-background:accumulate;stop-color:#000000;stop-opacity:1"
    d="M 138.387 293.438 C 137.699 293.407 137.005 293.561 136.394 293.891 C 136.386 293.895 136.378 293.897 136.371 293.901 C 136.367 293.903 136.365 293.905 136.361 293.907 C 136.333 293.923 136.307 293.942 136.286 293.966 L 136.285 293.967 C 136.285 293.967 136.285 293.968 136.284 293.968 C 136.235 294.025 136.212 294.099 136.218 294.173 C 136.218 294.175 136.218 294.177 136.218 294.179 C 136.22 294.191 136.222 294.202 136.224 294.214 C 136.226 294.222 136.228 294.232 136.232 294.24 C 136.24 294.264 136.252 294.287 136.266 294.308 C 136.268 294.31 136.268 294.312 136.27 294.314 C 136.288 294.339 136.311 294.361 136.336 294.379 C 136.337 294.38 136.337 294.38 136.337 294.38 L 136.338 294.381 C 136.391 294.418 136.455 294.434 136.519 294.428 L 136.52 294.428 C 136.53 294.427 136.541 294.426 136.551 294.422 C 136.553 294.422 136.555 294.422 136.557 294.421 C 137.281 294.252 138.083 294.389 138.709 294.79 C 139.335 295.192 139.793 295.862 139.944 296.592 C 140.043 297.076 140.016 297.594 139.916 298.101 C 139.815 298.608 139.641 299.109 139.459 299.618 C 138.671 301.817 137.765 304.001 137.155 306.291 C 136.544 308.582 136.233 311.013 136.674 313.377 C 137.223 316.316 138.961 319.006 141.412 320.708 C 143.438 322.115 145.921 322.824 148.379 322.734 C 148.404 324.264 148.457 325.793 148.535 327.32 C 145.579 327.474 142.641 327.972 139.803 328.814 C 142.69 329.758 145.701 330.311 148.733 330.466 C 148.851 332.042 148.99 333.616 149.163 335.187 C 145.994 335.298 142.84 335.81 139.799 336.712 C 142.949 337.742 146.248 338.304 149.56 338.393 C 149.805 340.207 150.085 342.018 150.404 343.821 C 150.755 342.02 151.061 340.21 151.33 338.395 C 154.659 338.311 157.975 337.747 161.142 336.712 C 158.097 335.809 154.939 335.295 151.766 335.185 C 151.957 333.614 152.108 332.04 152.237 330.463 C 155.262 330.307 158.266 329.756 161.146 328.814 C 158.321 327.976 155.397 327.48 152.455 327.323 C 152.541 325.797 152.597 324.269 152.625 322.741 C 155.015 322.785 157.415 322.077 159.385 320.708 C 161.836 319.006 163.574 316.316 164.123 313.377 C 164.564 311.013 164.254 308.582 163.642 306.291 C 163.032 304.001 162.131 301.817 161.342 299.618 C 161.16 299.109 160.985 298.608 160.884 298.101 C 160.784 297.594 160.754 297.076 160.853 296.592 C 161.004 295.862 161.465 295.192 162.091 294.79 C 162.712 294.392 163.506 294.255 164.224 294.418 C 164.35 294.457 164.486 294.4 164.549 294.284 C 164.615 294.162 164.58 294.009 164.468 293.928 C 164.46 293.922 164.45 293.916 164.441 293.91 L 164.439 293.908 C 164.431 293.904 164.421 293.9 164.412 293.896 C 163.428 293.361 162.219 293.288 161.178 293.701 C 160.128 294.117 159.293 295.01 158.944 296.088 C 158.731 296.745 158.699 297.436 158.764 298.101 C 158.829 298.765 158.99 299.407 159.155 300.03 C 159.701 302.103 160.356 304.132 160.709 306.209 C 161.061 308.285 161.099 310.442 160.436 312.401 C 159.833 314.182 158.643 315.764 157.104 316.837 C 155.792 317.752 154.224 318.293 152.629 318.401 C 152.506 311.286 151.764 304.182 150.404 297.198 C 149.163 304.2 148.488 311.302 148.376 318.413 C 146.71 318.341 145.062 317.791 143.693 316.837 C 142.154 315.764 140.968 314.182 140.365 312.401 C 139.702 310.442 139.736 308.285 140.088 306.209 C 140.441 304.132 141.1 302.103 141.647 300.03 C 141.811 299.407 141.968 298.765 142.033 298.101 C 142.099 297.436 142.07 296.745 141.857 296.088 C 141.508 295.01 140.669 294.117 139.619 293.701 C 139.225 293.545 138.808 293.458 138.387 293.439 L 138.387 293.438 Z" />
</svg>