<?xml version="1.0" encoding="utf-8"?>
<svg viewBox="129.4491 218.8885 42.1311 49.6469" width="42.1311" height="49.6469" xmlns="http://www.w3.org/2000/svg">
  <path id="path2797"
    style="color:#fefefe;font-style:normal;font-variant:normal;font-weight:normal;font-stretch:normal;font-size:medium;line-height:normal;font-family:sans-serif;font-variant-ligatures:normal;font-variant-position:normal;font-variant-caps:normal;font-variant-numeric:normal;font-variant-alternates:normal;font-variant-east-asian:normal;font-feature-settings:normal;font-variation-settings:normal;text-indent:0;text-align:start;text-decoration:none;text-decoration-line:none;text-decoration-style:solid;text-decoration-color:#000000;letter-spacing:normal;word-spacing:normal;text-transform:none;writing-mode:lr-tb;direction:ltr;text-orientation:mixed;dominant-baseline:auto;baseline-shift:baseline;text-anchor:start;white-space:normal;shape-padding:0;shape-margin:0;inline-size:0;clip-rule:nonzero;display:inline;overflow:visible;visibility:visible;opacity:1;isolation:auto;mix-blend-mode:normal;color-interpolation:sRGB;color-interpolation-filters:linearRGB;solid-color:#000000;solid-opacity:1;vector-effect:none;fill:#fefefe;fill-opacity:1;fill-rule:nonzero;stroke:none;stroke-width:0.5308;stroke-linecap:round;stroke-linejoin:miter;stroke-miterlimit:4;stroke-dasharray:none;stroke-dashoffset:0;stroke-opacity:1;color-rendering:auto;image-rendering:auto;shape-rendering:auto;text-rendering:auto;enable-background:accumulate;stop-color:#000000;stop-opacity:1"
    d="M 129.726 218.889 C 129.591 218.897 129.484 219.005 129.476 219.14 C 129.355 221.117 129.643 223.116 130.312 224.98 C 130.952 226.761 131.907 228.39 132.796 230.016 C 133.684 231.639 134.496 233.302 135.257 234.993 L 141.79 249.524 C 141.279 249.538 140.771 249.504 140.279 249.393 C 138.867 249.074 137.595 248.131 136.877 246.87 L 136.876 246.869 C 136.872 246.861 136.866 246.853 136.86 246.844 L 136.858 246.842 C 136.852 246.834 136.846 246.826 136.84 246.819 L 136.839 246.818 C 136.833 246.812 136.825 246.804 136.817 246.798 C 136.817 246.798 136.815 246.798 136.815 246.797 C 136.807 246.791 136.799 246.785 136.789 246.779 C 136.771 246.767 136.753 246.759 136.734 246.752 C 136.732 246.751 136.728 246.75 136.726 246.748 C 136.705 246.742 136.685 246.738 136.664 246.736 C 136.654 246.736 136.642 246.736 136.632 246.736 C 136.622 246.737 136.612 246.738 136.603 246.74 C 136.602 246.74 136.601 246.74 136.601 246.74 C 136.6 246.741 136.599 246.741 136.597 246.741 C 136.587 246.743 136.579 246.745 136.569 246.749 C 136.561 246.751 136.553 246.755 136.546 246.757 C 136.54 246.759 136.534 246.763 136.528 246.765 C 136.524 246.767 136.52 246.769 136.514 246.773 C 136.512 246.775 136.508 246.777 136.506 246.779 C 136.5 246.783 136.494 246.787 136.488 246.791 L 136.486 246.793 C 136.478 246.799 136.47 246.807 136.462 246.814 L 136.46 246.816 C 136.454 246.822 136.448 246.828 136.442 246.834 C 136.442 246.835 136.442 246.836 136.441 246.836 C 136.435 246.844 136.429 246.852 136.423 246.86 C 136.423 246.861 136.423 246.862 136.422 246.862 C 136.416 246.87 136.412 246.878 136.408 246.887 C 136.408 246.888 136.408 246.889 136.407 246.891 C 136.395 246.916 136.387 246.943 136.383 246.971 C 136.383 246.973 136.383 246.977 136.382 246.979 C 136.17 247.713 136.149 248.5 136.328 249.243 C 136.511 250.003 136.899 250.711 137.44 251.273 C 138.165 252.026 139.116 252.482 140.072 252.793 C 141.182 253.155 142.347 253.339 143.512 253.353 L 150.261 268.363 C 150.267 268.377 150.273 268.389 150.279 268.401 C 150.281 268.405 150.285 268.409 150.287 268.413 C 150.291 268.417 150.293 268.423 150.297 268.427 C 150.299 268.431 150.301 268.433 150.305 268.437 C 150.309 268.441 150.313 268.447 150.319 268.451 C 150.323 268.455 150.325 268.457 150.329 268.461 C 150.333 268.465 150.337 268.467 150.341 268.471 C 150.343 268.472 150.343 268.473 150.345 268.475 C 150.351 268.481 150.359 268.485 150.366 268.491 C 150.376 268.497 150.386 268.501 150.395 268.507 C 150.396 268.507 150.397 268.509 150.399 268.509 C 150.4 268.509 150.401 268.509 150.403 268.51 C 150.411 268.514 150.421 268.518 150.43 268.52 L 150.431 268.52 C 150.431 268.52 150.433 268.52 150.433 268.521 C 150.441 268.523 150.451 268.527 150.46 268.529 C 150.468 268.531 150.474 268.531 150.481 268.533 C 150.485 268.533 150.487 268.533 150.491 268.534 C 150.503 268.535 150.513 268.536 150.524 268.535 C 150.525 268.535 150.526 268.535 150.526 268.535 C 150.536 268.534 150.544 268.533 150.554 268.531 C 150.575 268.527 150.595 268.521 150.614 268.513 C 150.615 268.513 150.616 268.512 150.618 268.512 C 150.618 268.512 150.618 268.511 150.619 268.511 C 150.629 268.507 150.641 268.501 150.651 268.495 C 150.659 268.491 150.665 268.485 150.673 268.481 L 150.674 268.48 C 150.675 268.479 150.676 268.478 150.678 268.478 C 150.694 268.466 150.707 268.453 150.719 268.437 C 150.72 268.435 150.721 268.435 150.723 268.433 C 150.729 268.425 150.733 268.419 150.739 268.412 C 150.74 268.41 150.741 268.41 150.743 268.408 C 150.747 268.4 150.751 268.394 150.755 268.385 C 150.756 268.383 150.757 268.381 150.757 268.379 C 150.758 268.378 150.758 268.377 150.758 268.377 L 158.737 250.637 C 160.883 250.933 162.96 251.748 164.72 253.016 C 164.722 253.017 164.724 253.018 164.726 253.02 C 164.734 253.026 164.742 253.03 164.748 253.034 C 164.758 253.04 164.769 253.044 164.78 253.048 C 164.79 253.052 164.8 253.056 164.81 253.058 C 164.816 253.059 164.82 253.06 164.826 253.062 C 164.832 253.063 164.836 253.064 164.842 253.066 C 164.852 253.068 164.864 253.068 164.874 253.068 C 164.875 253.068 164.876 253.068 164.876 253.068 C 164.877 253.068 164.878 253.068 164.878 253.068 C 164.899 253.068 164.919 253.066 164.938 253.06 C 164.94 253.059 164.942 253.058 164.946 253.058 C 164.954 253.056 164.96 253.054 164.967 253.052 C 164.968 253.052 164.969 253.051 164.969 253.051 C 164.977 253.047 164.985 253.045 164.993 253.041 C 164.994 253.041 164.995 253.04 164.997 253.04 C 164.999 253.038 165.003 253.038 165.005 253.036 C 165.011 253.032 165.019 253.028 165.025 253.024 C 165.033 253.018 165.041 253.012 165.05 253.006 C 165.058 253 165.066 252.992 165.074 252.984 C 165.08 252.978 165.086 252.97 165.09 252.963 L 165.094 252.959 C 165.094 252.958 165.096 252.957 165.096 252.955 C 165.097 252.953 165.098 252.953 165.1 252.951 C 165.104 252.943 165.11 252.937 165.114 252.929 C 165.147 252.87 165.156 252.801 165.14 252.736 C 164.738 251.178 163.916 249.735 162.781 248.598 C 162.094 247.908 161.292 247.336 160.422 246.902 L 165.776 234.993 C 166.537 233.302 167.349 231.639 168.237 230.016 C 169.126 228.39 170.081 226.761 170.721 224.98 C 171.39 223.116 171.674 221.117 171.553 219.14 C 171.545 218.993 171.419 218.88 171.272 218.889 C 171.163 218.897 171.07 218.969 171.037 219.073 C 170.486 220.201 169.961 221.343 169.471 222.499 C 169.059 223.469 168.672 224.438 168.174 225.337 C 167.093 227.285 165.468 228.931 164.229 230.886 C 163.515 232.013 162.954 233.206 162.312 234.334 C 161.669 235.462 160.932 236.539 159.961 237.343 C 159.082 238.071 158.016 238.571 156.899 238.84 C 155.781 239.11 154.611 239.154 153.458 239.032 C 151.957 238.873 150.486 238.436 149.037 237.931 C 147.266 237.314 145.482 236.579 143.569 236.325 C 142.67 236.206 141.791 236.194 141 235.936 C 140.334 235.719 139.719 235.327 139.192 234.843 C 138.663 234.359 138.216 233.785 137.82 233.17 C 137.028 231.939 136.44 230.548 135.621 229.263 C 134.742 227.883 133.645 226.691 132.868 225.332 C 132.361 224.444 131.979 223.471 131.572 222.499 C 131.083 221.332 130.56 220.183 129.999 219.049 C 129.959 218.957 129.871 218.895 129.771 218.889 C 129.761 218.889 129.75 218.889 129.74 218.889 L 129.726 218.889 Z M 144.126 241.724 C 144.366 241.73 144.607 241.745 144.845 241.783 C 146.438 242.035 147.945 242.801 149.571 243.3 C 151.884 244.01 154.367 244.058 156.734 243.559 L 155.536 245.94 C 155.363 245.948 155.191 245.95 155.018 245.964 C 153.806 246.065 152.6 246.325 151.441 246.654 C 149.802 247.119 148.216 247.719 146.63 248.294 L 143.404 241.732 C 143.645 241.724 143.885 241.718 144.126 241.724 Z M 152.986 251.008 L 150.446 256.056 L 148.636 252.375 C 149.475 252.092 150.304 251.791 151.133 251.525 C 151.744 251.33 152.363 251.157 152.986 251.008 Z" />
</svg>