<?xml version="1.0" encoding="utf-8"?>
<svg viewBox="209.5789 143.646 41.4223 50.8169" width="41.4223" height="50.8169" xmlns="http://www.w3.org/2000/svg">
  <path id="path2453"
    style="color:#fefefe;font-style:normal;font-variant:normal;font-weight:normal;font-stretch:normal;font-size:medium;line-height:normal;font-family:sans-serif;font-variant-ligatures:normal;font-variant-position:normal;font-variant-caps:normal;font-variant-numeric:normal;font-variant-alternates:normal;font-variant-east-asian:normal;font-feature-settings:normal;font-variation-settings:normal;text-indent:0;text-align:start;text-decoration:none;text-decoration-line:none;text-decoration-style:solid;text-decoration-color:#000000;letter-spacing:normal;word-spacing:normal;text-transform:none;writing-mode:lr-tb;direction:ltr;text-orientation:mixed;dominant-baseline:auto;baseline-shift:baseline;text-anchor:start;white-space:normal;shape-padding:0;shape-margin:0;inline-size:0;clip-rule:nonzero;display:inline;overflow:visible;visibility:visible;opacity:1;isolation:auto;mix-blend-mode:normal;color-interpolation:sRGB;color-interpolation-filters:linearRGB;solid-color:#000000;solid-opacity:1;vector-effect:none;fill:#fefefe;fill-opacity:1;fill-rule:nonzero;stroke:none;stroke-width:4.00606;stroke-linecap:round;stroke-linejoin:miter;stroke-miterlimit:4;stroke-dasharray:none;stroke-dashoffset:0;stroke-opacity:1;color-rendering:auto;image-rendering:auto;shape-rendering:auto;text-rendering:auto;enable-background:accumulate;stop-color:#000000;stop-opacity:1"
    d="M 242.839 143.646 C 241.763 143.646 240.724 143.974 239.844 144.594 C 238.94 145.23 238.721 146.481 239.355 147.388 C 239.988 148.296 241.235 148.517 242.14 147.882 C 242.333 147.746 242.603 147.659 242.839 147.659 C 243.075 147.659 243.345 147.746 243.538 147.882 C 243.668 147.974 243.772 148.086 243.827 148.184 C 243.88 148.278 243.901 148.386 243.901 148.447 C 243.902 148.536 243.834 148.753 243.682 148.925 C 243.516 149.114 243.224 149.313 242.851 149.45 C 242.081 149.731 240.945 149.741 239.527 149.799 C 237.601 149.877 235.614 150.153 233.681 150.813 C 231.741 151.476 229.871 152.529 228.35 154.07 C 226.744 155.696 225.637 157.769 225.178 160.011 C 224.811 161.805 224.873 163.664 225.339 165.426 C 224.35 166.479 223.467 167.644 222.733 168.934 C 219.881 173.951 219.758 179.657 219.496 184.75 C 219.411 186.395 219.27 187.827 218.773 188.868 C 218.528 189.38 218.195 189.801 217.84 190.068 C 217.497 190.325 217.083 190.46 216.773 190.452 C 216.518 190.446 216.198 190.343 215.91 190.154 C 215.615 189.961 215.322 189.664 215.078 189.292 C 214.585 188.539 214.282 187.463 214.059 186.216 C 213.755 184.522 213.597 182.8 213.579 181.079 C 213.567 179.97 212.66 179.082 211.556 179.095 C 210.453 179.108 209.568 180.014 209.579 181.121 C 209.599 183.067 209.78 185.01 210.123 186.925 C 210.377 188.349 210.744 189.98 211.736 191.495 C 212.234 192.257 212.885 192.968 213.723 193.517 C 214.567 194.069 215.571 194.432 216.668 194.461 C 218.019 194.497 219.25 194.023 220.238 193.281 C 221.213 192.549 221.904 191.597 222.378 190.605 C 223.317 188.64 223.404 186.642 223.491 184.957 C 223.755 179.815 223.997 174.809 226.205 170.925 C 226.938 169.637 227.891 168.476 229.001 167.442 C 231.015 165.565 233.548 164.114 236.238 163.131 C 240.229 161.672 244.568 161.136 248.791 161.583 C 249.889 161.699 250.874 160.901 250.99 159.799 C 251.106 158.696 250.308 157.708 249.209 157.593 C 244.373 157.082 239.437 157.691 234.868 159.361 C 232.813 160.112 230.793 161.107 228.944 162.365 C 228.944 161.844 228.992 161.324 229.096 160.819 C 229.396 159.354 230.14 157.953 231.188 156.891 C 232.189 155.877 233.516 155.107 234.969 154.611 C 236.429 154.113 238.032 153.875 239.688 153.807 C 240.917 153.757 242.503 153.848 244.222 153.22 C 245.093 152.901 245.967 152.388 246.678 151.581 C 247.404 150.758 247.903 149.679 247.901 148.439 C 247.9 147.627 247.68 146.866 247.303 146.201 C 246.929 145.54 246.417 145.004 245.835 144.594 C 244.954 143.974 243.915 143.647 242.839 143.646 Z" />
</svg>