<?xml version="1.0" encoding="utf-8"?>
<svg viewBox="206.378 216.687 41.6211 49.268" width="41.6211" height="49.268" xmlns="http://www.w3.org/2000/svg">
  <path id="path2700"
    style="color:#fefefe;font-style:normal;font-variant:normal;font-weight:normal;font-stretch:normal;font-size:medium;line-height:normal;font-family:sans-serif;font-variant-ligatures:normal;font-variant-position:normal;font-variant-caps:normal;font-variant-numeric:normal;font-variant-alternates:normal;font-variant-east-asian:normal;font-feature-settings:normal;font-variation-settings:normal;text-indent:0;text-align:start;text-decoration:none;text-decoration-line:none;text-decoration-style:solid;text-decoration-color:#000000;letter-spacing:normal;word-spacing:normal;text-transform:none;writing-mode:lr-tb;direction:ltr;text-orientation:mixed;dominant-baseline:auto;baseline-shift:baseline;text-anchor:start;white-space:normal;shape-padding:0;shape-margin:0;inline-size:0;clip-rule:nonzero;display:inline;overflow:visible;visibility:visible;opacity:1;isolation:auto;mix-blend-mode:normal;color-interpolation:sRGB;color-interpolation-filters:linearRGB;solid-color:#000000;solid-opacity:1;vector-effect:none;fill:#fefefe;fill-opacity:1;fill-rule:nonzero;stroke:none;stroke-width:4.00606;stroke-linecap:round;stroke-linejoin:miter;stroke-miterlimit:4;stroke-dasharray:none;stroke-dashoffset:0;stroke-opacity:1;color-rendering:auto;image-rendering:auto;shape-rendering:auto;text-rendering:auto;enable-background:accumulate;stop-color:#000000;stop-opacity:1"
    d="M 219.95 216.687 C 218.845 216.687 217.95 217.586 217.95 218.694 L 217.95 224.67 L 208.378 224.67 C 207.274 224.669 206.378 225.568 206.378 226.676 C 206.377 227.785 207.273 228.684 208.378 228.683 L 217.95 228.683 L 217.95 263.948 C 217.95 265.056 218.845 265.955 219.95 265.955 C 221.054 265.955 221.95 265.056 221.949 263.948 L 221.949 242.864 C 221.996 241.372 222.377 239.776 223.114 238.723 C 223.732 237.865 224.593 237.165 225.543 236.752 C 226.127 236.499 226.63 236.439 226.89 236.501 C 227.089 236.55 227.333 236.734 227.433 236.913 C 227.534 237.092 227.533 237.306 227.499 237.594 C 226.838 243.295 226.268 249.028 225.671 254.743 L 230.073 248.559 C 231.863 246.047 233.659 243.54 235.459 241.035 C 236.154 240.069 236.756 239.313 237.345 238.935 C 237.629 238.752 237.917 238.656 238.134 238.633 C 238.337 238.613 238.525 238.665 238.598 238.711 L 238.602 238.711 C 238.671 238.754 238.789 238.879 238.861 239.048 C 238.936 239.228 238.983 239.493 238.966 239.792 C 238.932 240.407 238.621 241.201 238.146 242.121 C 236.522 245.261 234.32 248.193 232.049 251.188 C 231.397 252.048 230.666 252.993 230.061 254.143 C 229.451 255.303 228.978 256.674 228.995 258.199 C 229.007 259.308 229.287 260.402 229.83 261.389 C 230.375 262.377 231.163 263.218 232.143 263.811 C 233.897 264.871 235.931 264.971 237.724 264.493 C 240.298 263.806 242.137 262.097 243.645 260.598 C 244.469 259.779 245.33 258.879 246.093 257.803 C 246.859 256.723 247.519 255.464 247.828 254.018 C 248.049 252.983 248.102 251.799 247.706 250.6 C 247.508 249.999 247.2 249.415 246.758 248.893 C 246.312 248.367 245.746 247.923 245.066 247.634 C 243.926 247.149 242.673 247.167 241.547 247.685 C 240.422 248.202 239.586 249.147 239.208 250.331 C 238.87 251.386 239.449 252.516 240.501 252.854 C 241.553 253.193 242.68 252.61 243.016 251.553 C 243.037 251.485 243.146 251.363 243.211 251.333 C 243.276 251.304 243.439 251.301 243.505 251.329 C 243.557 251.352 243.641 251.407 243.711 251.49 C 243.784 251.576 243.859 251.706 243.911 251.862 C 244.015 252.178 244.03 252.651 243.919 253.176 C 243.757 253.933 243.373 254.724 242.837 255.48 C 242.297 256.24 241.602 256.978 240.83 257.746 C 239.438 259.129 238.07 260.251 236.698 260.618 C 235.803 260.856 234.838 260.751 234.209 260.371 C 233.856 260.157 233.54 259.829 233.331 259.45 C 233.122 259.07 233 258.606 232.995 258.153 C 232.987 257.518 233.206 256.767 233.601 256.017 C 234 255.257 234.582 254.478 235.234 253.619 C 237.508 250.621 239.864 247.515 241.697 243.97 C 242.243 242.915 242.87 241.622 242.958 240.016 C 243.002 239.205 242.903 238.338 242.549 237.493 C 242.189 236.637 241.589 235.851 240.716 235.306 C 239.775 234.718 238.723 234.54 237.736 234.639 C 236.765 234.737 235.911 235.094 235.19 235.557 C 233.765 236.472 232.922 237.709 232.218 238.688 C 231.886 239.15 231.554 239.613 231.222 240.076 L 231.385 238.53 C 231.695 237.315 231.536 236.047 230.917 234.945 C 230.251 233.759 229.144 232.921 227.825 232.602 C 226.346 232.245 225.01 232.61 223.954 233.069 C 223.236 233.38 222.567 233.781 221.95 234.248 L 221.95 228.684 L 232.418 228.684 C 233.522 228.684 234.418 227.785 234.417 226.676 C 234.417 225.568 233.522 224.67 232.418 224.67 L 221.95 224.67 L 221.95 218.695 C 221.95 217.586 221.055 216.687 219.95 216.687 Z" />
</svg>