<?xml version="1.0" encoding="utf-8"?>
<svg viewBox="116.931 69.776 63.156 52.377" width="63.156" height="52.377" xmlns="http://www.w3.org/2000/svg">
  <path id="path2287"
    style="fill:#fefefe;fill-opacity:1;stroke:none;stroke-width:0.537892px;stroke-linecap:butt;stroke-linejoin:miter;stroke-opacity:1"
    d="M 148.434 69.776 C 147.641 74.364 147.059 78.989 146.685 83.63 C 145.347 83.693 144.044 83.833 142.78 84.037 L 137.657 74.06 L 138.389 85.067 C 137.399 85.38 136.451 85.74 135.548 86.144 L 130.581 81.646 L 132.014 88.115 C 128.814 90.332 126.536 93.373 126.247 96.931 C 123.133 97.268 120.026 97.667 116.931 98.146 C 120.062 98.597 123.204 98.973 126.351 99.289 C 126.715 101.426 127.799 103.359 129.353 105.017 L 123.347 114.115 L 132.909 107.877 C 134.193 108.638 135.637 109.333 136.834 109.796 L 135.475 115.932 L 140.898 111.022 L 140.866 111.004 C 142.993 111.447 145.028 111.67 147.015 111.796 C 147.374 115.258 147.841 118.709 148.434 122.138 C 148.46 121.998 148.483 121.857 148.508 121.716 C 148.535 121.862 148.558 122.008 148.585 122.153 C 149.178 118.722 149.646 115.269 150.005 111.805 C 152.143 111.724 154.198 111.454 156.136 111.021 L 161.544 115.918 L 160.191 109.809 C 161.64 109.228 162.954 108.581 164.132 107.878 L 173.671 114.101 L 167.677 105.021 C 169.233 103.357 170.316 101.418 170.673 99.274 C 173.819 98.958 176.958 98.583 180.087 98.132 C 176.991 97.653 173.882 97.254 170.767 96.917 C 170.468 93.37 168.193 90.336 164.999 88.125 L 166.438 81.632 L 161.45 86.149 C 160.553 85.749 159.611 85.392 158.629 85.082 L 159.361 74.046 L 154.225 84.047 C 152.939 83.868 151.554 83.713 150.333 83.643 C 149.96 79.002 149.377 74.378 148.585 69.79 C 148.558 69.933 148.536 70.077 148.51 70.22 C 148.483 70.072 148.461 69.924 148.434 69.776 Z M 150.629 88.268 C 154.865 88.571 158.627 89.721 161.329 91.325 C 163.894 92.847 165.393 94.637 165.868 96.439 C 160.626 96.059 155.341 95.783 150.833 95.726 C 150.829 93.239 150.762 90.752 150.629 88.268 Z M 146.389 88.282 C 146.382 88.408 146.38 88.535 146.374 88.662 C 146.254 91.016 146.189 93.372 146.185 95.73 C 144.368 95.752 142.551 95.808 140.734 95.879 C 137.536 95.999 134.34 96.185 131.15 96.453 C 131.626 94.651 133.125 92.861 135.69 91.339 C 138.391 89.735 142.153 88.585 146.389 88.282 Z M 165.602 99.731 C 164.943 101.27 163.529 102.775 161.329 104.08 C 158.583 105.71 154.743 106.874 150.422 107.154 C 150.576 104.788 150.701 102.581 150.77 100.383 C 152.457 100.363 154.143 100.319 155.828 100.261 C 159.089 100.154 162.349 99.982 165.602 99.731 Z M 131.417 99.745 C 136.596 100.092 141.793 100.335 146.248 100.387 C 146.33 102.702 146.44 104.96 146.599 107.165 C 146.423 107.155 146.253 107.133 146.079 107.12 C 141.971 106.784 138.324 105.658 135.69 104.094 C 133.49 102.789 132.075 101.284 131.417 99.745 Z" />
</svg>