<?xml version="1.0" encoding="utf-8"?>
<svg viewBox="119.394 155.6306 61.2855 28.4024" width="61.2855" height="28.4024" xmlns="http://www.w3.org/2000/svg">
  <path id="path2839"
    style="color:#fefefe;font-style:normal;font-variant:normal;font-weight:normal;font-stretch:normal;font-size:medium;line-height:normal;font-family:sans-serif;font-variant-ligatures:normal;font-variant-position:normal;font-variant-caps:normal;font-variant-numeric:normal;font-variant-alternates:normal;font-variant-east-asian:normal;font-feature-settings:normal;font-variation-settings:normal;text-indent:0;text-align:start;text-decoration:none;text-decoration-line:none;text-decoration-style:solid;text-decoration-color:#000000;letter-spacing:normal;word-spacing:normal;text-transform:none;writing-mode:lr-tb;direction:ltr;text-orientation:mixed;dominant-baseline:auto;baseline-shift:baseline;text-anchor:start;white-space:normal;shape-padding:0;shape-margin:0;inline-size:0;clip-rule:nonzero;display:inline;overflow:visible;visibility:visible;opacity:1;isolation:auto;mix-blend-mode:normal;color-interpolation:sRGB;color-interpolation-filters:linearRGB;solid-color:#000000;solid-opacity:1;vector-effect:none;fill:#fefefe;fill-opacity:1;fill-rule:nonzero;stroke:none;stroke-width:0.5308;stroke-linecap:round;stroke-linejoin:miter;stroke-miterlimit:4;stroke-dasharray:none;stroke-dashoffset:0;stroke-opacity:1;color-rendering:auto;image-rendering:auto;shape-rendering:auto;text-rendering:auto;enable-background:accumulate;stop-color:#000000;stop-opacity:1"
    d="M 149.295 155.641 C 142.452 155.84 135.686 158.432 130.427 162.793 C 125.887 166.557 121.749 170.653 119.394 175.304 C 121.955 173.244 124.626 171.119 127.388 169.178 C 128.238 170.203 129.148 171.177 130.117 172.09 L 129.616 177.297 L 133.359 174.766 C 133.423 174.813 133.486 174.862 133.551 174.908 C 134.514 175.593 135.52 176.223 136.561 176.786 L 136.758 181.046 L 139.029 177.959 C 140.216 178.441 141.439 178.824 142.694 179.085 L 143.206 183.004 L 145.2 179.437 C 146.152 179.514 147.109 179.534 148.065 179.491 L 149.555 184.033 L 151.125 179.168 C 151.153 179.164 151.181 179.16 151.209 179.156 C 152.22 178.985 153.223 178.753 154.21 178.467 L 156.235 182.673 L 157.247 177.368 C 157.857 177.103 158.458 176.817 159.042 176.501 L 161.459 179.322 L 161.748 174.781 C 162.751 174.033 163.688 173.204 164.579 172.324 L 167.775 175.207 L 167.775 168.84 C 168.043 168.529 168.307 168.215 168.573 167.902 C 169.042 168.197 169.517 168.486 170.01 168.75 C 171.703 169.655 173.659 170.296 175.603 169.972 C 176.974 169.744 178.252 169.029 179.169 167.982 C 180.086 166.934 180.627 165.567 180.675 164.173 C 180.724 162.78 180.376 161.302 179.437 160.274 C 178.482 159.227 177.21 158.446 176.019 158.035 C 176.013 158.033 176.005 158.031 175.999 158.031 C 175.969 158.025 175.939 158.025 175.909 158.031 C 175.889 158.035 175.87 158.041 175.851 158.051 C 175.839 158.057 175.827 158.063 175.816 158.071 C 175.804 158.077 175.794 158.083 175.784 158.092 C 175.776 158.1 175.768 158.106 175.761 158.115 C 175.747 158.129 175.736 158.145 175.726 158.162 C 175.714 158.18 175.705 158.198 175.698 158.217 L 175.698 158.221 C 175.697 158.225 175.696 158.229 175.694 158.233 C 175.692 158.249 175.69 158.265 175.69 158.28 C 175.689 158.296 175.689 158.311 175.69 158.327 C 175.691 158.335 175.692 158.343 175.694 158.351 C 175.694 158.353 175.694 158.357 175.694 158.359 C 175.698 158.373 175.704 158.388 175.71 158.401 C 175.714 158.411 175.72 158.419 175.726 158.429 C 175.732 158.441 175.74 158.453 175.749 158.465 C 175.757 158.475 175.765 158.483 175.773 158.492 C 176.606 159.278 177.265 160.247 177.691 161.313 C 178.063 162.245 178.245 163.274 177.987 164.197 C 177.858 164.658 177.62 165.089 177.285 165.412 C 176.95 165.735 176.512 165.952 176.062 165.996 C 175.543 166.047 174.995 165.874 174.48 165.624 C 172.934 164.874 171.697 163.552 170.301 162.403 C 167.801 160.344 164.846 158.931 161.823 157.849 C 157.814 156.413 153.566 155.518 149.293 155.642 L 149.295 155.641 Z M 144.957 160.737 L 155.347 160.737 C 155.347 163.92 153.022 166.5 150.152 166.5 C 147.283 166.5 144.957 163.92 144.957 160.737 Z M 141.336 162.288 C 141.855 167.447 145.545 171.449 150.026 171.449 C 154.417 171.449 158.042 167.606 158.676 162.599 C 161.478 163.632 164.168 165.058 166.686 166.68 C 166.987 166.874 167.289 167.071 167.59 167.269 C 164.013 170.309 159.748 172.533 155.21 173.714 C 150.951 174.822 146.468 175.016 142.115 174.377 C 139.639 174.014 137.198 173.384 134.873 172.453 C 132.475 171.493 130.206 170.211 128.14 168.657 C 132.353 165.767 136.771 163.351 141.336 162.288 Z" />
</svg>