<?xml version="1.0" encoding="utf-8"?>
<svg viewBox="203.3698 304.148 50.7695 28.0784" width="50.7695" height="28.0784" xmlns="http://www.w3.org/2000/svg">
  <path
    style="color:#fefefe;font-style:normal;font-variant:normal;font-weight:normal;font-stretch:normal;font-size:medium;line-height:normal;font-family:sans-serif;font-variant-ligatures:normal;font-variant-position:normal;font-variant-caps:normal;font-variant-numeric:normal;font-variant-alternates:normal;font-variant-east-asian:normal;font-feature-settings:normal;font-variation-settings:normal;text-indent:0;text-align:start;text-decoration:none;text-decoration-line:none;text-decoration-style:solid;text-decoration-color:#000000;letter-spacing:normal;word-spacing:normal;text-transform:none;writing-mode:lr-tb;direction:ltr;text-orientation:mixed;dominant-baseline:auto;baseline-shift:baseline;text-anchor:start;white-space:normal;shape-padding:0;shape-margin:0;inline-size:0;clip-rule:nonzero;display:inline;overflow:visible;visibility:visible;opacity:1;isolation:auto;mix-blend-mode:normal;color-interpolation:sRGB;color-interpolation-filters:linearRGB;solid-color:#000000;solid-opacity:1;vector-effect:none;fill:#fefefe;fill-opacity:1;fill-rule:nonzero;stroke:none;stroke-width:3.82736;stroke-linecap:round;stroke-linejoin:miter;stroke-miterlimit:4;stroke-dasharray:none;stroke-dashoffset:0;stroke-opacity:1;color-rendering:auto;image-rendering:auto;shape-rendering:auto;text-rendering:auto;enable-background:accumulate;stop-color:#000000;stop-opacity:1"
    d="M 228.757 304.148 C 225.646 304.148 222.417 304.605 219.426 305.954 C 217.243 306.939 215.145 308.434 213.728 310.614 C 213.018 311.705 212.498 312.95 212.271 314.285 C 212.044 315.625 212.118 317.032 212.564 318.369 C 213.31 320.605 214.603 321.978 214.982 323.13 C 215.335 324.207 215.179 325.532 214.583 326.496 C 213.988 327.46 212.875 328.193 211.756 328.354 C 210.637 328.515 209.364 328.127 208.522 327.37 C 207.68 326.613 207.157 325.385 207.194 324.251 C 207.229 323.193 206.402 322.306 205.347 322.272 C 204.292 322.237 203.409 323.067 203.374 324.126 C 203.298 326.44 204.253 328.682 205.972 330.227 C 207.691 331.772 210.014 332.476 212.299 332.147 C 214.583 331.818 216.613 330.487 217.829 328.519 C 219.045 326.55 219.332 324.131 218.61 321.931 C 217.873 319.686 216.574 318.306 216.189 317.15 C 215.961 316.469 215.911 315.686 216.04 314.928 C 216.17 314.166 216.478 313.401 216.927 312.71 C 217.827 311.324 219.306 310.21 220.992 309.45 C 223.332 308.394 226.023 307.984 228.757 307.984 C 231.49 307.984 234.177 308.394 236.517 309.45 C 238.204 310.21 239.682 311.324 240.583 312.71 C 241.032 313.401 241.344 314.166 241.473 314.928 C 241.602 315.686 241.552 316.469 241.325 317.15 C 240.939 318.306 239.637 319.686 238.899 321.931 C 238.177 324.131 238.464 326.55 239.681 328.519 C 240.897 330.487 242.93 331.818 245.215 332.147 C 247.499 332.476 249.823 331.772 251.542 330.227 C 253.261 328.682 254.211 326.44 254.135 324.126 C 254.101 323.067 253.217 322.237 252.163 322.272 C 251.109 322.308 250.284 323.194 250.319 324.251 C 250.357 325.385 249.833 326.613 248.991 327.37 C 248.149 328.127 246.876 328.515 245.758 328.354 C 244.639 328.193 243.522 327.46 242.926 326.496 C 242.33 325.532 242.174 324.207 242.528 323.13 C 242.906 321.978 244.199 320.605 244.945 318.369 C 245.391 317.032 245.466 315.625 245.238 314.285 C 245.011 312.95 244.491 311.705 243.781 310.614 C 242.364 308.434 240.266 306.939 238.083 305.954 C 235.093 304.605 231.867 304.148 228.757 304.148 Z"
    id="path2884" />
</svg>