<?xml version="1.0" encoding="utf-8"?>
<svg viewBox="204.201 81.884 43 41.184" width="43" height="41.184" xmlns="http://www.w3.org/2000/svg">
  <path id="path2280"
    style="color:#fefefe;font-style:normal;font-variant:normal;font-weight:normal;font-stretch:normal;font-size:medium;line-height:normal;font-family:sans-serif;font-variant-ligatures:normal;font-variant-position:normal;font-variant-caps:normal;font-variant-numeric:normal;font-variant-alternates:normal;font-variant-east-asian:normal;font-feature-settings:normal;font-variation-settings:normal;text-indent:0;text-align:start;text-decoration:none;text-decoration-line:none;text-decoration-style:solid;text-decoration-color:#000000;letter-spacing:normal;word-spacing:normal;text-transform:none;writing-mode:lr-tb;direction:ltr;text-orientation:mixed;dominant-baseline:auto;baseline-shift:baseline;text-anchor:start;white-space:normal;shape-padding:0;shape-margin:0;inline-size:0;clip-rule:nonzero;display:inline;overflow:visible;visibility:visible;opacity:1;isolation:auto;mix-blend-mode:normal;color-interpolation:sRGB;color-interpolation-filters:linearRGB;solid-color:#000000;solid-opacity:1;vector-effect:none;fill:#fefefe;fill-opacity:1;fill-rule:nonzero;stroke:none;stroke-width:4.00606;stroke-linecap:round;stroke-linejoin:miter;stroke-miterlimit:4;stroke-dasharray:none;stroke-dashoffset:0;stroke-opacity:1;color-rendering:auto;image-rendering:auto;shape-rendering:auto;text-rendering:auto;enable-background:accumulate;stop-color:#000000;stop-opacity:1"
    d="M 239.511 81.93 C 225.841 81.942 212.558 81.957 208.298 81.958 L 205.353 85.966 C 207.723 85.964 210.351 85.966 212.476 85.966 L 212.532 107.19 L 210.275 110.669 L 210.28 110.673 C 210.227 110.757 210.173 110.837 210.12 110.924 C 209.673 111.665 209.344 112.373 209.146 113.106 C 209.047 113.473 208.966 113.838 208.998 114.352 C 209.023 114.753 209.162 115.422 209.708 115.956 L 216.54 123.114 C 216.564 110.505 216.516 97.289 216.486 85.967 L 228.998 85.967 L 229.078 117.691 L 226.285 121.028 C 229.508 121.03 232.945 121.026 235.907 121.028 C 235.006 119.947 234.105 118.771 233.203 117.691 L 233.127 85.971 C 235.577 85.972 237.553 85.967 239.969 85.967 C 240.315 85.999 240.54 86.06 240.616 86.105 C 240.662 86.131 240.715 86.189 240.733 86.226 C 240.75 86.261 240.76 86.328 240.757 86.355 C 240.753 86.385 240.722 86.495 240.632 86.641 C 240.538 86.792 240.38 86.986 240.159 87.217 C 239.713 87.683 238.963 88.283 238.343 89.329 C 237.554 90.659 237.355 92.237 237.788 93.722 C 238.221 95.207 239.238 96.43 240.616 97.124 C 241.994 97.818 243.576 97.907 245.021 97.367 C 246.467 96.828 247.609 95.724 248.2 94.295 C 248.623 93.271 248.139 92.097 247.118 91.673 C 246.099 91.248 244.93 91.732 244.506 92.754 C 244.356 93.115 243.993 93.469 243.627 93.605 C 243.262 93.742 242.756 93.713 242.408 93.538 C 242.06 93.363 241.736 92.973 241.627 92.597 C 241.518 92.222 241.58 91.719 241.78 91.383 C 241.954 91.09 242.411 90.658 243.042 89.999 C 243.358 89.669 243.713 89.273 244.029 88.761 C 244.349 88.245 244.624 87.618 244.721 86.876 C 244.832 86.024 244.686 85.18 244.306 84.423 C 243.928 83.668 243.348 83.056 242.631 82.637 C 241.952 82.239 241.287 82.077 240.678 82.002 C 240.291 81.944 239.867 81.938 239.511 81.931 L 239.511 81.93 Z" />
</svg>